<?xml version="1.0" encoding="UTF-8"?>
<svg width="200" height="200" viewBox="0 0 200 200" fill="none" xmlns="http://www.w3.org/2000/svg">
  <rect width="200" height="200" fill="#04192C"/>
  <circle cx="100" cy="100" r="60" fill="#36A6CA"/>
  <path d="M100 60C94.4772 60 90 64.4772 90 70V75H85C79.4772 75 75 79.4772 75 85C75 90.5228 79.4772 95 85 95H90V105H85C79.4772 105 75 109.477 75 115C75 120.523 79.4772 125 85 125H90V130C90 135.523 94.4772 140 100 140C105.523 140 110 135.523 110 130V125H115C120.523 125 125 120.523 125 115C125 109.477 120.523 105 115 105H110V95H115C120.523 95 125 90.5228 125 85C125 79.4772 120.523 75 115 75H110V70C110 64.4772 105.523 60 100 60Z" fill="#29B5A4"/>
  <path d="M95 85H105V115H95V85Z" fill="#04192C"/>
</svg> 