<?xml version="1.0" encoding="UTF-8"?>
<svg width="200" height="200" viewBox="0 0 200 200" fill="none" xmlns="http://www.w3.org/2000/svg">
  <rect width="200" height="200" fill="#04192C"/>
  <path d="M100 50C88.9543 50 80 58.9543 80 70V80H70C58.9543 80 50 88.9543 50 100C50 111.046 58.9543 120 70 120H80V130C80 141.046 88.9543 150 100 150C111.046 150 120 141.046 120 130V120H130C141.046 120 150 111.046 150 100C150 88.9543 141.046 80 130 80H120V70C120 58.9543 111.046 50 100 50Z" fill="#36A6CA"/>
  <path d="M100 60C94.4772 60 90 64.4772 90 70V90H70C64.4772 90 60 94.4772 60 100C60 105.523 64.4772 110 70 110H90V130C90 135.523 94.4772 140 100 140C105.523 140 110 135.523 110 130V110H130C135.523 110 140 105.523 140 100C140 94.4772 135.523 90 130 90H110V70C110 64.4772 105.523 60 100 60Z" fill="#29B5A4"/>
</svg> 