<?xml version="1.0" encoding="UTF-8"?>
<svg width="200" height="200" viewBox="0 0 200 200" fill="none" xmlns="http://www.w3.org/2000/svg">
  <rect width="200" height="200" fill="#04192C"/>
  <path d="M100 50C77.9086 50 60 67.9086 60 90C60 112.091 77.9086 130 100 130C122.091 130 140 112.091 140 90C140 67.9086 122.091 50 100 50Z" fill="#36A6CA"/>
  <path d="M100 70C88.9543 70 80 78.9543 80 90C80 101.046 88.9543 110 100 110C111.046 110 120 101.046 120 90C120 78.9543 111.046 70 100 70Z" fill="#29B5A4"/>
  <path d="M95 130L100 150L105 130H95Z" fill="#36A6CA"/>
  <path d="M85 125L75 142.321L90 128.66L85 125Z" fill="#36A6CA"/>
  <path d="M115 125L125 142.321L110 128.66L115 125Z" fill="#36A6CA"/>
</svg> 